<svg id="visual" viewBox="0 0 900 600" width="900" height="600" xmlns="http://www.w3.org/2000/svg" xmlns:xlink="http://www.w3.org/1999/xlink" version="1.1"><path d="M0 109L60 109L60 127L120 127L120 73L180 73L180 97L240 97L240 85L300 85L300 109L360 109L360 247L420 247L420 169L480 169L480 139L540 139L540 187L600 187L600 169L660 169L660 115L720 115L720 121L780 121L780 127L840 127L840 103L900 103L900 109L900 0L900 0L840 0L840 0L780 0L780 0L720 0L720 0L660 0L660 0L600 0L600 0L540 0L540 0L480 0L480 0L420 0L420 0L360 0L360 0L300 0L300 0L240 0L240 0L180 0L180 0L120 0L120 0L60 0L60 0L0 0Z" fill="#e0e0e0"></path><path d="M0 181L60 181L60 217L120 217L120 103L180 103L180 181L240 181L240 133L300 133L300 157L360 157L360 283L420 283L420 265L480 265L480 205L540 205L540 253L600 253L600 253L660 253L660 205L720 205L720 169L780 169L780 229L840 229L840 139L900 139L900 139L900 107L900 101L840 101L840 125L780 125L780 119L720 119L720 113L660 113L660 167L600 167L600 185L540 185L540 137L480 137L480 167L420 167L420 245L360 245L360 107L300 107L300 83L240 83L240 95L180 95L180 71L120 71L120 125L60 125L60 107L0 107Z" fill="#e5e5e5"></path><path d="M0 439L60 439L60 319L120 319L120 313L180 313L180 337L240 337L240 361L300 361L300 367L360 367L360 385L420 385L420 385L480 385L480 361L540 361L540 361L600 361L600 403L660 403L660 337L720 337L720 409L780 409L780 361L840 361L840 337L900 337L900 343L900 137L900 137L840 137L840 227L780 227L780 167L720 167L720 203L660 203L660 251L600 251L600 251L540 251L540 203L480 203L480 263L420 263L420 281L360 281L360 155L300 155L300 131L240 131L240 179L180 179L180 101L120 101L120 215L60 215L60 179L0 179Z" fill="#eaeaea"></path><path d="M0 487L60 487L60 397L120 397L120 397L180 397L180 373L240 373L240 439L300 439L300 439L360 439L360 439L420 439L420 433L480 433L480 427L540 427L540 445L600 445L600 481L660 481L660 403L720 403L720 439L780 439L780 415L840 415L840 379L900 379L900 409L900 341L900 335L840 335L840 359L780 359L780 407L720 407L720 335L660 335L660 401L600 401L600 359L540 359L540 359L480 359L480 383L420 383L420 383L360 383L360 365L300 365L300 359L240 359L240 335L180 335L180 311L120 311L120 317L60 317L60 437L0 437Z" fill="#efefef"></path><path d="M0 535L60 535L60 517L120 517L120 505L180 505L180 505L240 505L240 505L300 505L300 505L360 505L360 493L420 493L420 493L480 493L480 529L540 529L540 517L600 517L600 541L660 541L660 487L720 487L720 499L780 499L780 505L840 505L840 469L900 469L900 487L900 407L900 377L840 377L840 413L780 413L780 437L720 437L720 401L660 401L660 479L600 479L600 443L540 443L540 425L480 425L480 431L420 431L420 437L360 437L360 437L300 437L300 437L240 437L240 371L180 371L180 395L120 395L120 395L60 395L60 485L0 485Z" fill="#f4f4f4"></path><path d="M0 577L60 577L60 571L120 571L120 565L180 565L180 553L240 553L240 571L300 571L300 553L360 553L360 529L420 529L420 541L480 541L480 565L540 565L540 577L600 577L600 577L660 577L660 547L720 547L720 535L780 535L780 547L840 547L840 535L900 535L900 547L900 485L900 467L840 467L840 503L780 503L780 497L720 497L720 485L660 485L660 539L600 539L600 515L540 515L540 527L480 527L480 491L420 491L420 491L360 491L360 503L300 503L300 503L240 503L240 503L180 503L180 503L120 503L120 515L60 515L60 533L0 533Z" fill="#fafafa"></path><path d="M0 601L60 601L60 601L120 601L120 601L180 601L180 601L240 601L240 601L300 601L300 601L360 601L360 601L420 601L420 601L480 601L480 601L540 601L540 601L600 601L600 601L660 601L660 601L720 601L720 601L780 601L780 601L840 601L840 601L900 601L900 601L900 545L900 533L840 533L840 545L780 545L780 533L720 533L720 545L660 545L660 575L600 575L600 575L540 575L540 563L480 563L480 539L420 539L420 527L360 527L360 551L300 551L300 569L240 569L240 551L180 551L180 563L120 563L120 569L60 569L60 575L0 575Z" fill="#ffffff"></path></svg>