<svg id="visual" viewBox="0 0 900 600" width="900" height="600" xmlns="http://www.w3.org/2000/svg" xmlns:xlink="http://www.w3.org/1999/xlink" version="1.1"><rect x="0" y="0" width="900" height="600" fill="#000"></rect><path d="M0 437L15 437.2C30 437.3 60 437.7 90 436C120 434.3 150 430.7 180 446.5C210 462.3 240 497.7 270 497.5C300 497.3 330 461.7 360 459C390 456.3 420 486.7 450 492C480 497.3 510 477.7 540 468.7C570 459.7 600 461.3 630 473.7C660 486 690 509 720 519.5C750 530 780 528 810 521.2C840 514.3 870 502.7 885 496.8L900 491L900 601L885 601C870 601 840 601 810 601C780 601 750 601 720 601C690 601 660 601 630 601C600 601 570 601 540 601C510 601 480 601 450 601C420 601 390 601 360 601C330 601 300 601 270 601C240 601 210 601 180 601C150 601 120 601 90 601C60 601 30 601 15 601L0 601Z" fill="#FFF" stroke-linecap="round" stroke-linejoin="miter"></path></svg>